<svg width="36" height="36" viewBox="0 0 36 36" fill="none" xmlns="http://www.w3.org/2000/svg">
<g clip-path="url(#clip0_35_102)">
<path d="M31.7812 0.0341797H4.21875C1.89253 0.0341797 0 1.89323 0 4.17831V31.2533C0 33.5383 1.89253 35.3974 4.21875 35.3974H31.7812C34.1075 35.3974 36 33.5383 36 31.2533V4.17831C36 1.89323 34.1075 0.0341797 31.7812 0.0341797ZM33.1875 31.2533C33.1875 32.015 32.5567 32.6346 31.7812 32.6346H23.7656V21.3764H28.1102L28.8281 17.0942H23.7656V14.1242C23.7656 12.9518 24.6814 12.0521 25.875 12.0521H28.7578V7.76988H25.875C22.2945 7.76988 19.4078 10.619 19.4078 14.1362V17.0942H15.1875V21.3764H19.4078V32.6346H4.21875C3.44334 32.6346 2.8125 32.015 2.8125 31.2533V4.17831C2.8125 3.41662 3.44334 2.79693 4.21875 2.79693H31.7812C32.5567 2.79693 33.1875 3.41662 33.1875 4.17831V31.2533Z" fill="white"/>
</g>
<defs>
<clipPath id="clip0_35_102">
<rect width="36" height="35.3632" fill="white" transform="translate(0 0.0341797)"/>
</clipPath>
</defs>
</svg>
