<svg width="36" height="36" viewBox="0 0 36 36" fill="none" xmlns="http://www.w3.org/2000/svg">
<g clip-path="url(#clip0_35_106)">
<path d="M35.9648 10.4311C35.8805 8.55208 35.5712 7.26029 35.128 6.14094C34.6709 4.95278 33.9677 3.88902 33.0463 3.00472C32.146 2.10665 31.056 1.40881 29.8604 0.96679C28.7143 0.531518 27.4062 0.227664 25.4934 0.144819C23.5663 0.0549583 22.9545 0.0341797 18.0668 0.0341797C13.1791 0.0341797 12.5673 0.0549583 10.6474 0.137803C8.73457 0.220648 7.41952 0.524772 6.28029 0.959774C5.07046 1.40881 3.98755 2.09963 3.08732 3.00472C2.17308 3.88902 1.46295 4.9598 1.0127 6.1342C0.569587 7.26029 0.260262 8.54506 0.175925 10.424C0.0844462 12.3171 0.0632935 12.918 0.0632935 17.7192C0.0632935 22.5205 0.0844462 23.1214 0.168783 25.0074C0.253119 26.8864 0.562719 28.1782 1.00583 29.2975C1.46295 30.4857 2.17308 31.5495 3.08732 32.4338C3.98755 33.3318 5.07761 34.0297 6.27315 34.4717C7.41952 34.907 8.72743 35.2108 10.6405 35.2937C12.5602 35.3768 13.1723 35.3973 18.0599 35.3973C22.9476 35.3973 23.5594 35.3768 25.4793 35.2937C27.3922 35.2108 28.7072 34.907 29.8464 34.4717C32.2658 33.5528 34.1786 31.6739 35.114 29.2975C35.5569 28.1714 35.8665 26.8864 35.9508 25.0074C36.0351 23.1214 36.0563 22.5205 36.0563 17.7192C36.0563 12.918 36.0492 12.3171 35.9648 10.4311ZM32.7229 24.8693C32.6455 26.5963 32.3502 27.5289 32.104 28.1507C31.4991 29.6912 30.2544 30.9139 28.6861 31.5082C28.0531 31.75 27.0968 32.04 25.3456 32.1159C23.4468 32.199 22.8773 32.2195 18.0739 32.2195C13.2706 32.2195 12.694 32.199 10.802 32.1159C9.04389 32.04 8.09449 31.75 7.46155 31.5082C6.6811 31.2248 5.97069 30.7758 5.39407 30.1886C4.7963 29.6152 4.33918 28.9243 4.05073 28.1577C3.80459 27.5359 3.50928 26.5963 3.43208 24.8763C3.34747 23.011 3.32659 22.4514 3.32659 17.733C3.32659 13.0146 3.34747 12.4482 3.43208 10.59C3.50928 8.86295 3.80459 7.93034 4.05073 7.3086C4.33918 6.54167 4.7963 5.84411 5.40122 5.27742C5.9847 4.69022 6.68797 4.24118 7.4687 3.95811C8.10163 3.71632 9.05818 3.42623 10.8092 3.35013C12.708 3.26728 13.2778 3.2465 18.0808 3.2465C22.8913 3.2465 23.4608 3.26728 25.3527 3.35013C27.1109 3.42623 28.0603 3.71632 28.6932 3.95811C29.4737 4.24118 30.1841 4.69022 30.7607 5.27742C31.3584 5.85085 31.8156 6.54167 32.104 7.3086C32.3502 7.93034 32.6455 8.86969 32.7229 10.59C32.8073 12.4552 32.8284 13.0146 32.8284 17.733C32.8284 22.4514 32.8073 23.004 32.7229 24.8693Z" fill="white"/>
<path d="M18.0668 8.63501C12.9613 8.63501 8.81891 12.7038 8.81891 17.7193C8.81891 22.7348 12.9613 26.8036 18.0668 26.8036C23.1726 26.8036 27.3147 22.7348 27.3147 17.7193C27.3147 12.7038 23.1726 8.63501 18.0668 8.63501ZM18.0668 23.6121C14.7546 23.6121 12.0679 20.9732 12.0679 17.7193C12.0679 14.4654 14.7546 11.8266 18.0668 11.8266C21.3793 11.8266 24.0657 14.4654 24.0657 17.7193C24.0657 20.9732 21.3793 23.6121 18.0668 23.6121Z" fill="white"/>
<path d="M29.84 8.2758C29.84 9.44697 28.8732 10.3966 27.6807 10.3966C26.4885 10.3966 25.5218 9.44697 25.5218 8.2758C25.5218 7.10437 26.4885 6.15503 27.6807 6.15503C28.8732 6.15503 29.84 7.10437 29.84 8.2758Z" fill="white"/>
</g>
<defs>
<clipPath id="clip0_35_106">
<rect width="36" height="35.3632" fill="white" transform="translate(0 0.0341797)"/>
</clipPath>
</defs>
</svg>
