<svg width="36" height="36" viewBox="0 0 36 36" fill="none" xmlns="http://www.w3.org/2000/svg">
<g clip-path="url(#clip0_35_110)">
<path d="M18.0001 0.0341797C10.811 0.0341797 4.96225 5.77946 4.96225 12.8413C4.96225 21.6053 16.6298 34.4714 17.1266 35.0148C17.5932 35.5253 18.4078 35.5244 18.8736 35.0148C19.3703 34.4714 31.0379 21.6053 31.0379 12.8413C31.0378 5.77946 25.1891 0.0341797 18.0001 0.0341797ZM18.0001 19.285C14.3831 19.285 11.4405 16.3944 11.4405 12.8413C11.4405 9.28829 14.3831 6.39776 18.0001 6.39776C21.617 6.39776 24.5596 9.28836 24.5596 12.8414C24.5596 16.3944 21.617 19.285 18.0001 19.285Z" fill="white"/>
</g>
<defs>
<clipPath id="clip0_35_110">
<rect width="36" height="35.3632" fill="white" transform="translate(0 0.0341797)"/>
</clipPath>
</defs>
</svg>
